<?xml version="1.0" encoding="UTF-8" standalone="no"?>
<!DOCTYPE svg PUBLIC "-//W3C//DTD SVG 1.1//EN"
 "http://www.w3.org/Graphics/SVG/1.1/DTD/svg11.dtd">
<!-- Generated by graphviz version 2.43.0 (0)
 -->
<!-- Title: G Pages: 1 -->
<svg width="2039pt" height="566pt"
 viewBox="0.00 0.00 2039.00 566.00" xmlns="http://www.w3.org/2000/svg" xmlns:xlink="http://www.w3.org/1999/xlink">
<g id="graph0" class="graph" transform="scale(1 1) rotate(0) translate(4 562)">
<title>G</title>
<polygon fill="white" stroke="transparent" points="-4,4 -4,-562 2035,-562 2035,4 -4,4"/>
<!-- q4 -->
<g id="node1" class="node">
<title>q4</title>
<ellipse fill="yellow" stroke="black" cx="309" cy="-453" rx="27" ry="18"/>
<text text-anchor="middle" x="309" y="-449.3" font-family="Times,serif" font-size="14.00">q4</text>
</g>
<!-- q7 -->
<g id="node2" class="node">
<title>q7</title>
<ellipse fill="yellow" stroke="black" cx="782" cy="-366" rx="27" ry="18"/>
<text text-anchor="middle" x="782" y="-362.3" font-family="Times,serif" font-size="14.00">q7</text>
</g>
<!-- q4&#45;&gt;q7 -->
<g id="edge1" class="edge">
<title>q4&#45;&gt;q7</title>
<path fill="none" stroke="black" d="M334.77,-447.37C414.12,-433.11 654.96,-389.83 746.33,-373.41"/>
<polygon fill="black" stroke="black" points="746.99,-376.85 756.21,-371.63 745.75,-369.96 746.99,-376.85"/>
<text text-anchor="middle" x="612" y="-405.8" font-family="Times,serif" font-size="14.00">&quot;httpconn&quot;</text>
</g>
<!-- q1 -->
<g id="node3" class="node">
<title>q1</title>
<ellipse fill="red" stroke="black" cx="808" cy="-18" rx="27" ry="18"/>
<text text-anchor="middle" x="808" y="-14.3" font-family="Times,serif" font-size="14.00">q1</text>
</g>
<!-- q4&#45;&gt;q1 -->
<g id="edge3" class="edge">
<title>q4&#45;&gt;q1</title>
<path fill="none" stroke="black" d="M282.12,-450.37C206.94,-445.1 0,-425.28 0,-367 0,-367 0,-367 0,-104 0,-25.49 611.11,-19.25 770.4,-18.95"/>
<polygon fill="black" stroke="black" points="770.66,-22.45 780.65,-18.94 770.65,-15.45 770.66,-22.45"/>
<text text-anchor="middle" x="70" y="-231.8" font-family="Times,serif" font-size="14.00">&quot;upstreamauthelia&quot;</text>
</g>
<!-- q4&#45;&gt;q1 -->
<g id="edge10" class="edge">
<title>q4&#45;&gt;q1</title>
<path fill="none" stroke="black" d="M282.56,-448.7C240.49,-441.81 163,-421.7 163,-367 163,-367 163,-367 163,-104 163,-58.63 208.49,-66.86 252,-54 349.62,-25.15 662.6,-20.08 770.79,-19.19"/>
<polygon fill="black" stroke="black" points="770.93,-22.69 780.9,-19.11 770.87,-15.69 770.93,-22.69"/>
<text text-anchor="middle" x="203" y="-231.8" font-family="Times,serif" font-size="14.00">&quot;httpclose&quot;</text>
</g>
<!-- q4&#45;&gt;q1 -->
<g id="edge20" class="edge">
<title>q4&#45;&gt;q1</title>
<path fill="none" stroke="black" d="M296.1,-437.17C283.43,-421.05 266,-393.96 266,-367 266,-367 266,-367 266,-104 266,-64.67 301.89,-67.02 339,-54 418.46,-26.11 674.35,-20.44 770.77,-19.29"/>
<polygon fill="black" stroke="black" points="770.97,-22.79 780.93,-19.18 770.89,-15.79 770.97,-22.79"/>
<text text-anchor="middle" x="298" y="-231.8" font-family="Times,serif" font-size="14.00">&quot;authed&quot;</text>
</g>
<!-- q4&#45;&gt;q1 -->
<g id="edge35" class="edge">
<title>q4&#45;&gt;q1</title>
<path fill="none" stroke="black" d="M322.2,-437.22C335.16,-421.14 353,-394.09 353,-367 353,-367 353,-367 353,-104 353,-55.5 403.48,-67.72 450,-54 563.2,-20.63 704.36,-17.45 770.51,-18.08"/>
<polygon fill="black" stroke="black" points="770.8,-21.58 780.85,-18.21 770.89,-14.58 770.8,-21.58"/>
<text text-anchor="middle" x="397" y="-231.8" font-family="Times,serif" font-size="14.00">&quot;verifyauth&quot;</text>
</g>
<!-- q4&#45;&gt;q1 -->
<g id="edge36" class="edge">
<title>q4&#45;&gt;q1</title>
<path fill="none" stroke="black" d="M335.65,-449.45C379.96,-443.59 464,-424.85 464,-367 464,-367 464,-367 464,-104 464,-41.34 681.84,-24.58 770.82,-20.35"/>
<polygon fill="black" stroke="black" points="771.17,-23.83 781.01,-19.89 770.86,-16.84 771.17,-23.83"/>
<text text-anchor="middle" x="522.5" y="-231.8" font-family="Times,serif" font-size="14.00">&quot;upstreamhello&quot;</text>
</g>
<!-- q7&#45;&gt;q1 -->
<g id="edge2" class="edge">
<title>q7&#45;&gt;q1</title>
<path fill="none" stroke="black" d="M755.51,-362.36C714.95,-357.83 640.02,-347.33 620,-330 583.42,-298.34 616.7,-261.7 582,-228 564.15,-210.67 543.49,-230.22 529,-210 519.68,-196.99 524.11,-189.23 529,-174 549.07,-111.53 559.55,-89.09 615,-54 640.4,-37.93 722.56,-27.38 771.11,-22.38"/>
<polygon fill="black" stroke="black" points="771.61,-25.84 781.22,-21.37 770.92,-18.88 771.61,-25.84"/>
<text text-anchor="middle" x="568" y="-188.3" font-family="Times,serif" font-size="14.00">&quot;httpconn&quot;</text>
</g>
<!-- q7&#45;&gt;q1 -->
<g id="edge9" class="edge">
<title>q7&#45;&gt;q1</title>
<path fill="none" stroke="black" d="M763.94,-352.19C732.22,-328.45 667.55,-274.14 643,-210 637.28,-195.06 640.8,-189.85 643,-174 650.63,-119.09 637.51,-92.9 677,-54 701.72,-29.65 741.4,-21.74 770.62,-19.41"/>
<polygon fill="black" stroke="black" points="771.1,-22.88 780.87,-18.78 770.67,-15.9 771.1,-22.88"/>
<text text-anchor="middle" x="701.5" y="-188.3" font-family="Times,serif" font-size="14.00">&quot;upstreamhello&quot;</text>
</g>
<!-- q7&#45;&gt;q1 -->
<g id="edge28" class="edge">
<title>q7&#45;&gt;q1</title>
<path fill="none" stroke="black" d="M785.39,-348.05C791.6,-311.85 800.7,-226.07 760,-174 745.97,-156.05 725.26,-174.53 712,-156 694.15,-131.06 699.48,-115.42 711,-87 722.13,-59.53 751.48,-41.43 775,-30.87"/>
<polygon fill="black" stroke="black" points="776.48,-34.04 784.33,-26.92 773.76,-27.59 776.48,-34.04"/>
<text text-anchor="middle" x="811" y="-188.3" font-family="Times,serif" font-size="14.00">&quot;authed&quot;</text>
</g>
<!-- q0 -->
<g id="node4" class="node">
<title>q0</title>
<ellipse fill="yellow" stroke="black" cx="950" cy="-279" rx="27" ry="18"/>
<text text-anchor="middle" x="950" y="-275.3" font-family="Times,serif" font-size="14.00">q0</text>
</g>
<!-- q7&#45;&gt;q0 -->
<g id="edge37" class="edge">
<title>q7&#45;&gt;q0</title>
<path fill="none" stroke="black" d="M802.94,-354.41C832.44,-339.48 886.42,-312.17 920.13,-295.11"/>
<polygon fill="black" stroke="black" points="921.72,-298.23 929.06,-290.59 918.56,-291.98 921.72,-298.23"/>
<text text-anchor="middle" x="920" y="-318.8" font-family="Times,serif" font-size="14.00">&quot;verifyauth&quot;</text>
</g>
<!-- q3 -->
<g id="node6" class="node">
<title>q3</title>
<ellipse fill="green" stroke="black" cx="1806" cy="-18" rx="27" ry="18"/>
<text text-anchor="middle" x="1806" y="-14.3" font-family="Times,serif" font-size="14.00">q3</text>
</g>
<!-- q7&#45;&gt;q3 -->
<g id="edge33" class="edge">
<title>q7&#45;&gt;q3</title>
<path fill="none" stroke="black" d="M809.04,-364.31C975.47,-359.91 1854,-334.08 1854,-280 1854,-280 1854,-280 1854,-104 1854,-80.92 1851.51,-74 1840,-54 1837.15,-49.04 1833.44,-44.27 1829.52,-39.92"/>
<polygon fill="black" stroke="black" points="1831.87,-37.32 1822.38,-32.62 1826.86,-42.21 1831.87,-37.32"/>
<text text-anchor="middle" x="1894" y="-188.3" font-family="Times,serif" font-size="14.00">&quot;httpclose&quot;</text>
</g>
<!-- q2 -->
<g id="node7" class="node">
<title>q2</title>
<ellipse fill="yellow" stroke="black" cx="1349" cy="-105" rx="27" ry="18"/>
<text text-anchor="middle" x="1349" y="-101.3" font-family="Times,serif" font-size="14.00">q2</text>
</g>
<!-- q7&#45;&gt;q2 -->
<g id="edge38" class="edge">
<title>q7&#45;&gt;q2</title>
<path fill="none" stroke="black" d="M808.87,-363.87C932.53,-358.08 1444.85,-327.18 1540,-210 1586.09,-153.24 1453.17,-122.84 1385.68,-111.4"/>
<polygon fill="black" stroke="black" points="1385.88,-107.89 1375.45,-109.73 1384.75,-114.8 1385.88,-107.89"/>
<text text-anchor="middle" x="1587" y="-231.8" font-family="Times,serif" font-size="14.00">&quot;upstreamauthelia&quot;</text>
</g>
<!-- q1&#45;&gt;q1 -->
<g id="edge17" class="edge">
<title>q1&#45;&gt;q1</title>
<path fill="none" stroke="black" d="M832.53,-25.75C843.51,-26.49 853,-23.91 853,-18 853,-14.03 848.72,-11.56 842.57,-10.59"/>
<polygon fill="black" stroke="black" points="842.65,-7.09 832.53,-10.25 842.41,-14.09 842.65,-7.09"/>
<text text-anchor="middle" x="857" y="-14.3" font-family="Times,serif" font-size="14.00">?</text>
</g>
<!-- q0&#45;&gt;q1 -->
<g id="edge22" class="edge">
<title>q0&#45;&gt;q1</title>
<path fill="none" stroke="black" d="M929.95,-266.93C919.71,-260.7 907.46,-252.32 898,-243 871.38,-216.79 881.79,-193.62 850,-174 802.24,-144.52 761.75,-198.42 725,-156 692.13,-118.06 746.89,-65.5 782.04,-37.81"/>
<polygon fill="black" stroke="black" points="784.26,-40.51 790.06,-31.65 780,-34.96 784.26,-40.51"/>
<text text-anchor="middle" x="795" y="-144.8" font-family="Times,serif" font-size="14.00">&quot;upstreamauthelia&quot;</text>
</g>
<!-- q0&#45;&gt;q1 -->
<g id="edge32" class="edge">
<title>q0&#45;&gt;q1</title>
<path fill="none" stroke="black" d="M941.12,-261.8C917.11,-218.01 850.8,-97.06 821.83,-44.23"/>
<polygon fill="black" stroke="black" points="824.76,-42.28 816.88,-35.2 818.62,-45.65 824.76,-42.28"/>
<text text-anchor="middle" x="921" y="-144.8" font-family="Times,serif" font-size="14.00">&quot;httpconn&quot;</text>
</g>
<!-- q0&#45;&gt;q1 -->
<g id="edge34" class="edge">
<title>q0&#45;&gt;q1</title>
<path fill="none" stroke="black" d="M957.11,-261.41C967.44,-234.6 983.38,-180.76 964,-141 938.28,-88.23 877.47,-51.58 839.82,-33.02"/>
<polygon fill="black" stroke="black" points="840.86,-29.64 830.33,-28.48 837.84,-35.95 840.86,-29.64"/>
<text text-anchor="middle" x="1027.5" y="-144.8" font-family="Times,serif" font-size="14.00">&quot;upstreamhello&quot;</text>
</g>
<!-- q0&#45;&gt;q0 -->
<g id="edge4" class="edge">
<title>q0&#45;&gt;q0</title>
<path fill="none" stroke="black" d="M974.53,-286.75C985.51,-287.49 995,-284.91 995,-279 995,-275.03 990.72,-272.56 984.57,-271.59"/>
<polygon fill="black" stroke="black" points="984.65,-268.09 974.53,-271.25 984.41,-275.09 984.65,-268.09"/>
<text text-anchor="middle" x="1039" y="-275.3" font-family="Times,serif" font-size="14.00">&quot;verifyauth&quot;</text>
</g>
<!-- q0&#45;&gt;q3 -->
<g id="edge7" class="edge">
<title>q0&#45;&gt;q3</title>
<path fill="none" stroke="black" d="M977.46,-278.34C1130.4,-279.92 1872.5,-283.76 1938,-210 1980.9,-161.69 1932.15,-117.25 1868,-54 1859.29,-45.41 1848.04,-38.23 1837.52,-32.65"/>
<polygon fill="black" stroke="black" points="1839.06,-29.51 1828.55,-28.17 1835.93,-35.77 1839.06,-29.51"/>
<text text-anchor="middle" x="1991" y="-144.8" font-family="Times,serif" font-size="14.00">&quot;httpclose&quot;</text>
</g>
<!-- q5 -->
<g id="node8" class="node">
<title>q5</title>
<ellipse fill="yellow" stroke="black" cx="1220" cy="-192" rx="27" ry="18"/>
<text text-anchor="middle" x="1220" y="-188.3" font-family="Times,serif" font-size="14.00">q5</text>
</g>
<!-- q0&#45;&gt;q5 -->
<g id="edge21" class="edge">
<title>q0&#45;&gt;q5</title>
<path fill="none" stroke="black" d="M973.96,-270.46C1022.2,-255.27 1131.11,-220.98 1186.42,-203.57"/>
<polygon fill="black" stroke="black" points="1187.61,-206.87 1196.09,-200.53 1185.5,-200.19 1187.61,-206.87"/>
<text text-anchor="middle" x="1133" y="-231.8" font-family="Times,serif" font-size="14.00">&quot;authed&quot;</text>
</g>
<!-- q6 -->
<g id="node5" class="node">
<title>q6</title>
<ellipse fill="yellow" stroke="black" cx="1142" cy="-105" rx="27" ry="18"/>
<text text-anchor="middle" x="1142" y="-101.3" font-family="Times,serif" font-size="14.00">q6</text>
</g>
<!-- q6&#45;&gt;q1 -->
<g id="edge14" class="edge">
<title>q6&#45;&gt;q1</title>
<path fill="none" stroke="black" d="M1115.36,-101.49C1081.63,-97.63 1022.22,-88.53 975,-69 963.72,-64.33 963.2,-58.84 952,-54 916.93,-38.84 874.1,-29.49 844.31,-24.31"/>
<polygon fill="black" stroke="black" points="844.78,-20.84 834.34,-22.65 843.63,-27.75 844.78,-20.84"/>
<text text-anchor="middle" x="1045" y="-57.8" font-family="Times,serif" font-size="14.00">&quot;upstreamauthelia&quot;</text>
</g>
<!-- q6&#45;&gt;q6 -->
<g id="edge19" class="edge">
<title>q6&#45;&gt;q6</title>
<path fill="none" stroke="black" d="M1166.53,-112.75C1177.51,-113.49 1187,-110.91 1187,-105 1187,-101.03 1182.72,-98.56 1176.57,-97.59"/>
<polygon fill="black" stroke="black" points="1176.65,-94.09 1166.53,-97.25 1176.41,-101.09 1176.65,-94.09"/>
<text text-anchor="middle" x="1245.5" y="-101.3" font-family="Times,serif" font-size="14.00">&quot;upstreamhello&quot;</text>
</g>
<!-- q6&#45;&gt;q3 -->
<g id="edge5" class="edge">
<title>q6&#45;&gt;q3</title>
<path fill="none" stroke="black" d="M1168.64,-101.21C1202.27,-97.71 1261.9,-91.63 1313,-87 1410.7,-78.15 1435.74,-81.85 1533,-69 1618.8,-57.66 1718.6,-37.62 1770.51,-26.67"/>
<polygon fill="black" stroke="black" points="1771.49,-30.04 1780.54,-24.54 1770.03,-23.19 1771.49,-30.04"/>
<text text-anchor="middle" x="1663" y="-57.8" font-family="Times,serif" font-size="14.00">&quot;httpclose&quot;</text>
</g>
<!-- q6&#45;&gt;q5 -->
<g id="edge23" class="edge">
<title>q6&#45;&gt;q5</title>
<path fill="none" stroke="black" d="M1169.27,-106.8C1193.83,-109.15 1228.66,-116.87 1246,-141 1252.21,-149.64 1248.45,-159.96 1242.08,-168.97"/>
<polygon fill="black" stroke="black" points="1239.3,-166.83 1235.7,-176.8 1244.73,-171.26 1239.3,-166.83"/>
<text text-anchor="middle" x="1281" y="-144.8" font-family="Times,serif" font-size="14.00">&quot;authed&quot;</text>
</g>
<!-- q6&#45;&gt;q5 -->
<g id="edge24" class="edge">
<title>q6&#45;&gt;q5</title>
<path fill="none" stroke="black" d="M1168.93,-107.35C1213.27,-110.2 1298.58,-118.54 1317,-141 1336.68,-165 1291.44,-178.76 1256.32,-185.56"/>
<polygon fill="black" stroke="black" points="1255.51,-182.15 1246.29,-187.37 1256.75,-189.04 1255.51,-182.15"/>
<text text-anchor="middle" x="1365" y="-144.8" font-family="Times,serif" font-size="14.00">&quot;verifyauth&quot;</text>
</g>
<!-- q6&#45;&gt;q5 -->
<g id="edge30" class="edge">
<title>q6&#45;&gt;q5</title>
<path fill="none" stroke="black" d="M1168.54,-108.48C1235.2,-114.84 1404.95,-131.85 1413,-141 1417.4,-146.01 1417.27,-150.88 1413,-156 1393.54,-179.31 1307.55,-187.13 1257.15,-189.73"/>
<polygon fill="black" stroke="black" points="1256.8,-186.24 1246.98,-190.2 1257.13,-193.23 1256.8,-186.24"/>
<text text-anchor="middle" x="1455" y="-144.8" font-family="Times,serif" font-size="14.00">&quot;httpconn&quot;</text>
</g>
<!-- q3&#45;&gt;q3 -->
<g id="edge15" class="edge">
<title>q3&#45;&gt;q3</title>
<path fill="none" stroke="black" d="M1830.53,-25.75C1841.51,-26.49 1851,-23.91 1851,-18 1851,-14.03 1846.72,-11.56 1840.57,-10.59"/>
<polygon fill="black" stroke="black" points="1840.65,-7.09 1830.53,-10.25 1840.41,-14.09 1840.65,-7.09"/>
<text text-anchor="middle" x="1855" y="-14.3" font-family="Times,serif" font-size="14.00">?</text>
</g>
<!-- q2&#45;&gt;q1 -->
<g id="edge6" class="edge">
<title>q2&#45;&gt;q1</title>
<path fill="none" stroke="black" d="M1328.52,-92.87C1323.56,-90.59 1318.19,-88.45 1313,-87 1237.68,-66.01 1211.71,-95.09 1138,-69 1126.5,-64.93 1126.48,-58.14 1115,-54 1066.15,-36.41 915.66,-25.41 845.16,-21.09"/>
<polygon fill="black" stroke="black" points="845.15,-17.58 834.96,-20.48 844.73,-24.57 845.15,-17.58"/>
<text text-anchor="middle" x="1177" y="-57.8" font-family="Times,serif" font-size="14.00">&quot;httpconn&quot;</text>
</g>
<!-- q2&#45;&gt;q1 -->
<g id="edge11" class="edge">
<title>q2&#45;&gt;q1</title>
<path fill="none" stroke="black" d="M1328.36,-93.38C1323.41,-91.08 1318.08,-88.8 1313,-87 1281.09,-75.72 1270.07,-82.44 1239,-69 1227.8,-64.15 1227.54,-57.97 1216,-54 1148.01,-30.58 932.67,-22.32 845.34,-19.88"/>
<polygon fill="black" stroke="black" points="845.19,-16.38 835.1,-19.61 845,-23.37 845.19,-16.38"/>
<text text-anchor="middle" x="1283" y="-57.8" font-family="Times,serif" font-size="14.00">&quot;verifyauth&quot;</text>
</g>
<!-- q2&#45;&gt;q1 -->
<g id="edge13" class="edge">
<title>q2&#45;&gt;q1</title>
<path fill="none" stroke="black" d="M1346.12,-86.71C1343.27,-75.46 1337.71,-61.52 1327,-54 1287.83,-26.52 957.87,-20.55 845.39,-19.31"/>
<polygon fill="black" stroke="black" points="845.24,-15.81 835.2,-19.21 845.16,-22.81 845.24,-15.81"/>
<text text-anchor="middle" x="1397.5" y="-57.8" font-family="Times,serif" font-size="14.00">&quot;upstreamhello&quot;</text>
</g>
<!-- q2&#45;&gt;q1 -->
<g id="edge27" class="edge">
<title>q2&#45;&gt;q1</title>
<path fill="none" stroke="black" d="M1375.42,-101.23C1416.19,-96 1487.04,-82.53 1460,-54 1438.74,-31.57 980.49,-21.96 845.25,-19.6"/>
<polygon fill="black" stroke="black" points="845.05,-16.1 834.99,-19.42 844.93,-23.09 845.05,-16.1"/>
<text text-anchor="middle" x="1497" y="-57.8" font-family="Times,serif" font-size="14.00">&quot;authed&quot;</text>
</g>
<!-- q2&#45;&gt;q3 -->
<g id="edge26" class="edge">
<title>q2&#45;&gt;q3</title>
<path fill="none" stroke="black" d="M1375.64,-101.69C1462.6,-94.14 1732.75,-70.59 1737,-69 1741.97,-67.14 1763.05,-51.65 1780.62,-38.4"/>
<polygon fill="black" stroke="black" points="1783.02,-40.97 1788.88,-32.14 1778.79,-35.39 1783.02,-40.97"/>
<text text-anchor="middle" x="1799" y="-57.8" font-family="Times,serif" font-size="14.00">&quot;httpclose&quot;</text>
</g>
<!-- q2&#45;&gt;q2 -->
<g id="edge16" class="edge">
<title>q2&#45;&gt;q2</title>
<path fill="none" stroke="black" d="M1373.53,-112.75C1384.51,-113.49 1394,-110.91 1394,-105 1394,-101.03 1389.72,-98.56 1383.57,-97.59"/>
<polygon fill="black" stroke="black" points="1383.65,-94.09 1373.53,-97.25 1383.41,-101.09 1383.65,-94.09"/>
<text text-anchor="middle" x="1464" y="-101.3" font-family="Times,serif" font-size="14.00">&quot;upstreamauthelia&quot;</text>
</g>
<!-- q5&#45;&gt;q1 -->
<g id="edge18" class="edge">
<title>q5&#45;&gt;q1</title>
<path fill="none" stroke="black" d="M1247.15,-189.32C1307.83,-185.29 1452.69,-174.04 1498,-156 1521.04,-146.82 1531.79,-145.12 1543,-123 1557.01,-95.36 1557.43,-73.06 1533,-54 1505.68,-32.69 989.91,-22.16 845.37,-19.62"/>
<polygon fill="black" stroke="black" points="845.29,-16.12 835.23,-19.44 845.17,-23.11 845.29,-16.12"/>
<text text-anchor="middle" x="1592" y="-101.3" font-family="Times,serif" font-size="14.00">&quot;httpclose&quot;</text>
</g>
<!-- q5&#45;&gt;q1 -->
<g id="edge25" class="edge">
<title>q5&#45;&gt;q1</title>
<path fill="none" stroke="black" d="M1246.95,-189.57C1300.69,-186.35 1424.82,-177.11 1527,-156 1576.57,-145.76 1605.84,-163.65 1636,-123 1645.53,-110.15 1644.98,-100.24 1636,-87 1613.71,-54.15 1591.8,-62.38 1553,-54 1415.89,-24.39 977.24,-19.83 845.66,-19.13"/>
<polygon fill="black" stroke="black" points="845.32,-15.63 835.3,-19.08 845.29,-22.63 845.32,-15.63"/>
<text text-anchor="middle" x="1712" y="-101.3" font-family="Times,serif" font-size="14.00">&quot;upstreamauthelia&quot;</text>
</g>
<!-- q5&#45;&gt;q6 -->
<g id="edge12" class="edge">
<title>q5&#45;&gt;q6</title>
<path fill="none" stroke="black" d="M1193.08,-188.66C1171.76,-185.24 1143.28,-176.79 1129,-156 1124.04,-148.77 1124.76,-139.78 1127.55,-131.41"/>
<polygon fill="black" stroke="black" points="1130.85,-132.6 1131.56,-122.03 1124.41,-129.85 1130.85,-132.6"/>
<text text-anchor="middle" x="1187.5" y="-144.8" font-family="Times,serif" font-size="14.00">&quot;upstreamhello&quot;</text>
</g>
<!-- q5&#45;&gt;q5 -->
<g id="edge8" class="edge">
<title>q5&#45;&gt;q5</title>
<path fill="none" stroke="black" d="M1246.79,-194.62C1256.78,-194.71 1265,-193.83 1265,-192 1265,-190.85 1261.79,-190.08 1256.94,-189.69"/>
<polygon fill="black" stroke="black" points="1256.9,-186.19 1246.79,-189.38 1256.68,-193.18 1256.9,-186.19"/>
<text text-anchor="middle" x="1304" y="-188.3" font-family="Times,serif" font-size="14.00">&quot;httpconn&quot;</text>
</g>
<!-- q5&#45;&gt;q5 -->
<g id="edge29" class="edge">
<title>q5&#45;&gt;q5</title>
<path fill="none" stroke="black" d="M1246.62,-195.83C1284.12,-198.6 1343,-197.32 1343,-192 1343,-187.14 1293.81,-185.65 1256.71,-187.54"/>
<polygon fill="black" stroke="black" points="1256.39,-184.06 1246.62,-188.17 1256.82,-191.04 1256.39,-184.06"/>
<text text-anchor="middle" x="1387" y="-188.3" font-family="Times,serif" font-size="14.00">&quot;verifyauth&quot;</text>
</g>
<!-- q5&#45;&gt;q5 -->
<g id="edge31" class="edge">
<title>q5&#45;&gt;q5</title>
<path fill="none" stroke="black" d="M1246.52,-196.52C1305.41,-202.18 1431,-200.67 1431,-192 1431,-183.8 1318.77,-182 1256.75,-186.61"/>
<polygon fill="black" stroke="black" points="1256.19,-183.15 1246.52,-187.48 1256.78,-190.12 1256.19,-183.15"/>
<text text-anchor="middle" x="1463" y="-188.3" font-family="Times,serif" font-size="14.00">&quot;authed&quot;</text>
</g>
<!-- start -->
<!-- start&#45;&gt;q4 -->
<g id="edge39" class="edge">
<title>start&#45;&gt;q4</title>
<path fill="none" stroke="black" d="M309,-521.8C309,-510.16 309,-494.55 309,-481.24"/>
<polygon fill="black" stroke="black" points="312.5,-481.18 309,-471.18 305.5,-481.18 312.5,-481.18"/>
<text text-anchor="middle" x="333" y="-492.8" font-family="Times,serif" font-size="14.00">START</text>
</g>
</g>
</svg>
