<?xml version="1.0" encoding="UTF-8" standalone="no"?>
<!DOCTYPE svg PUBLIC "-//W3C//DTD SVG 1.1//EN"
 "http://www.w3.org/Graphics/SVG/1.1/DTD/svg11.dtd">
<!-- Generated by graphviz version 2.43.0 (0)
 -->
<!-- Title: G Pages: 1 -->
<svg width="1127pt" height="392pt"
 viewBox="0.00 0.00 1127.00 392.00" xmlns="http://www.w3.org/2000/svg" xmlns:xlink="http://www.w3.org/1999/xlink">
<g id="graph0" class="graph" transform="scale(1 1) rotate(0) translate(4 388)">
<title>G</title>
<polygon fill="white" stroke="transparent" points="-4,4 -4,-388 1123,-388 1123,4 -4,4"/>
<!-- q0 -->
<g id="node1" class="node">
<title>q0</title>
<ellipse fill="yellow" stroke="black" cx="260" cy="-366" rx="27" ry="18"/>
<text text-anchor="middle" x="260" y="-362.3" font-family="Times,serif" font-size="14.00">q0</text>
</g>
<!-- q2 -->
<g id="node2" class="node">
<title>q2</title>
<ellipse fill="red" stroke="black" cx="469" cy="-18" rx="27" ry="18"/>
<text text-anchor="middle" x="469" y="-14.3" font-family="Times,serif" font-size="14.00">q2</text>
</g>
<!-- q0&#45;&gt;q2 -->
<g id="edge1" class="edge">
<title>q0&#45;&gt;q2</title>
<path fill="none" stroke="black" d="M260,-347.74C260,-330.57 260,-303.46 260,-280 260,-280 260,-280 260,-104 260,-30.83 371.26,-19.19 431.43,-18.24"/>
<polygon fill="black" stroke="black" points="431.7,-21.73 441.68,-18.17 431.65,-14.73 431.7,-21.73"/>
<text text-anchor="middle" x="292" y="-188.3" font-family="Times,serif" font-size="14.00">&quot;authed&quot;</text>
</g>
<!-- q0&#45;&gt;q2 -->
<g id="edge3" class="edge">
<title>q0&#45;&gt;q2</title>
<path fill="none" stroke="black" d="M233.64,-362.08C167.54,-354.02 0,-328.8 0,-280 0,-280 0,-280 0,-104 0,-60.16 321.38,-30.66 432.06,-21.79"/>
<polygon fill="black" stroke="black" points="432.41,-25.28 442.1,-21 431.86,-18.3 432.41,-25.28"/>
<text text-anchor="middle" x="75" y="-188.3" font-family="Times,serif" font-size="14.00">&quot;tcpconnectauthelia&quot;</text>
</g>
<!-- q0&#45;&gt;q2 -->
<g id="edge10" class="edge">
<title>q0&#45;&gt;q2</title>
<path fill="none" stroke="black" d="M240.17,-353.68C218.25,-339.52 186,-313.07 186,-280 186,-280 186,-280 186,-104 186,-53.17 355.6,-30.1 432.21,-22.27"/>
<polygon fill="black" stroke="black" points="432.77,-25.73 442.38,-21.27 432.08,-18.77 432.77,-25.73"/>
<text text-anchor="middle" x="205" y="-188.3" font-family="Times,serif" font-size="14.00">&quot;req&quot;</text>
</g>
<!-- q1 -->
<g id="node3" class="node">
<title>q1</title>
<ellipse fill="yellow" stroke="black" cx="762" cy="-279" rx="27" ry="18"/>
<text text-anchor="middle" x="762" y="-275.3" font-family="Times,serif" font-size="14.00">q1</text>
</g>
<!-- q0&#45;&gt;q1 -->
<g id="edge7" class="edge">
<title>q0&#45;&gt;q1</title>
<path fill="none" stroke="black" d="M285.93,-360.61C369.24,-346.5 630.2,-302.32 726.15,-286.07"/>
<polygon fill="black" stroke="black" points="726.95,-289.49 736.22,-284.36 725.78,-282.58 726.95,-289.49"/>
<text text-anchor="middle" x="601" y="-318.8" font-family="Times,serif" font-size="14.00">&quot;tcpaccepthello&quot;</text>
</g>
<!-- q2&#45;&gt;q2 -->
<g id="edge2" class="edge">
<title>q2&#45;&gt;q2</title>
<path fill="none" stroke="black" d="M493.53,-25.75C504.51,-26.49 514,-23.91 514,-18 514,-14.03 509.72,-11.56 503.57,-10.59"/>
<polygon fill="black" stroke="black" points="503.65,-7.09 493.53,-10.25 503.41,-14.09 503.65,-7.09"/>
<text text-anchor="middle" x="518" y="-14.3" font-family="Times,serif" font-size="14.00">?</text>
</g>
<!-- q1&#45;&gt;q2 -->
<g id="edge4" class="edge">
<title>q1&#45;&gt;q2</title>
<path fill="none" stroke="black" d="M788.84,-275.72C834.18,-271.42 923.53,-260.9 949,-243 1017.72,-194.69 1020.32,-98.38 949,-54 911.75,-30.82 612.51,-22.12 506.26,-19.74"/>
<polygon fill="black" stroke="black" points="506.09,-16.23 496.02,-19.51 505.94,-23.23 506.09,-16.23"/>
<text text-anchor="middle" x="1060" y="-144.8" font-family="Times,serif" font-size="14.00">&quot;tcpaccepthello&quot;</text>
</g>
<!-- q1&#45;&gt;q2 -->
<g id="edge12" class="edge">
<title>q1&#45;&gt;q2</title>
<path fill="none" stroke="black" d="M762.36,-260.89C763.13,-216.62 764.15,-100.8 754,-87 724.76,-47.24 576.11,-28.69 505.87,-22.04"/>
<polygon fill="black" stroke="black" points="505.97,-18.53 495.69,-21.1 505.33,-25.5 505.97,-18.53"/>
<text text-anchor="middle" x="837" y="-144.8" font-family="Times,serif" font-size="14.00">&quot;tcpconnectauthelia&quot;</text>
</g>
<!-- q1&#45;&gt;q2 -->
<g id="edge13" class="edge">
<title>q1&#45;&gt;q2</title>
<path fill="none" stroke="black" d="M785.6,-269.91C836.95,-250.97 951.22,-200.8 913,-141 863.42,-63.42 813.36,-79.85 725,-54 649.23,-31.83 556.66,-23.6 506.19,-20.62"/>
<polygon fill="black" stroke="black" points="506.26,-17.12 496.08,-20.06 505.87,-24.11 506.26,-17.12"/>
<text text-anchor="middle" x="951" y="-144.8" font-family="Times,serif" font-size="14.00">&quot;authed&quot;</text>
</g>
<!-- q4 -->
<g id="node5" class="node">
<title>q4</title>
<ellipse fill="yellow" stroke="black" cx="530" cy="-192" rx="27" ry="18"/>
<text text-anchor="middle" x="530" y="-188.3" font-family="Times,serif" font-size="14.00">q4</text>
</g>
<!-- q1&#45;&gt;q4 -->
<g id="edge6" class="edge">
<title>q1&#45;&gt;q4</title>
<path fill="none" stroke="black" d="M738.91,-269.54C697.5,-254.37 610.5,-222.49 562.88,-205.05"/>
<polygon fill="black" stroke="black" points="563.94,-201.71 553.34,-201.55 561.53,-208.28 563.94,-201.71"/>
<text text-anchor="middle" x="679" y="-231.8" font-family="Times,serif" font-size="14.00">&quot;req&quot;</text>
</g>
<!-- q3 -->
<g id="node4" class="node">
<title>q3</title>
<ellipse fill="yellow" stroke="black" cx="469" cy="-105" rx="27" ry="18"/>
<text text-anchor="middle" x="469" y="-101.3" font-family="Times,serif" font-size="14.00">q3</text>
</g>
<!-- q3&#45;&gt;q0 -->
<g id="edge11" class="edge">
<title>q3&#45;&gt;q0</title>
<path fill="none" stroke="black" d="M456.62,-121.35C421.49,-164.88 321.01,-289.39 278.91,-341.56"/>
<polygon fill="black" stroke="black" points="276,-339.59 272.45,-349.57 281.45,-343.99 276,-339.59"/>
<text text-anchor="middle" x="402" y="-231.8" font-family="Times,serif" font-size="14.00">&quot;authed&quot;</text>
</g>
<!-- q3&#45;&gt;q2 -->
<g id="edge17" class="edge">
<title>q3&#45;&gt;q2</title>
<path fill="none" stroke="black" d="M469,-86.8C469,-75.16 469,-59.55 469,-46.24"/>
<polygon fill="black" stroke="black" points="472.5,-46.18 469,-36.18 465.5,-46.18 472.5,-46.18"/>
<text text-anchor="middle" x="528" y="-57.8" font-family="Times,serif" font-size="14.00">&quot;tcpaccepthello&quot;</text>
</g>
<!-- q3&#45;&gt;q3 -->
<g id="edge5" class="edge">
<title>q3&#45;&gt;q3</title>
<path fill="none" stroke="black" d="M493.53,-112.75C504.51,-113.49 514,-110.91 514,-105 514,-101.03 509.72,-98.56 503.57,-97.59"/>
<polygon fill="black" stroke="black" points="503.65,-94.09 493.53,-97.25 503.41,-101.09 503.65,-94.09"/>
<text text-anchor="middle" x="589" y="-101.3" font-family="Times,serif" font-size="14.00">&quot;tcpconnectauthelia&quot;</text>
</g>
<!-- q3&#45;&gt;q4 -->
<g id="edge9" class="edge">
<title>q3&#45;&gt;q4</title>
<path fill="none" stroke="black" d="M463.45,-122.88C461.13,-133.14 460.15,-146.13 466,-156 472.61,-167.15 484.16,-174.98 495.65,-180.36"/>
<polygon fill="black" stroke="black" points="494.6,-183.71 505.18,-184.32 497.29,-177.25 494.6,-183.71"/>
<text text-anchor="middle" x="485" y="-144.8" font-family="Times,serif" font-size="14.00">&quot;req&quot;</text>
</g>
<!-- q4&#45;&gt;q2 -->
<g id="edge14" class="edge">
<title>q4&#45;&gt;q2</title>
<path fill="none" stroke="black" d="M556.68,-188.12C593.38,-183.55 656.56,-173.35 671,-156 690.62,-132.42 690.17,-112.42 673,-87 636.4,-32.82 554.39,-20.94 506.24,-18.85"/>
<polygon fill="black" stroke="black" points="506.32,-15.35 496.22,-18.53 506.1,-22.35 506.32,-15.35"/>
<text text-anchor="middle" x="718" y="-101.3" font-family="Times,serif" font-size="14.00">&quot;authed&quot;</text>
</g>
<!-- q4&#45;&gt;q2 -->
<g id="edge15" class="edge">
<title>q4&#45;&gt;q2</title>
<path fill="none" stroke="black" d="M502.89,-191.73C455.59,-191.35 358.84,-182.85 315,-123 279.37,-74.37 377.82,-41.32 433.58,-27.02"/>
<polygon fill="black" stroke="black" points="434.59,-30.37 443.45,-24.56 432.91,-23.58 434.59,-30.37"/>
<text text-anchor="middle" x="374" y="-101.3" font-family="Times,serif" font-size="14.00">&quot;tcpaccepthello&quot;</text>
</g>
<!-- q4&#45;&gt;q3 -->
<g id="edge8" class="edge">
<title>q4&#45;&gt;q3</title>
<path fill="none" stroke="black" d="M524.68,-174.31C520.96,-164.11 515.34,-151.14 508,-141 504.08,-135.58 499.19,-130.39 494.22,-125.75"/>
<polygon fill="black" stroke="black" points="496.29,-122.9 486.46,-118.93 491.67,-128.16 496.29,-122.9"/>
<text text-anchor="middle" x="592" y="-144.8" font-family="Times,serif" font-size="14.00">&quot;tcpconnectauthelia&quot;</text>
</g>
<!-- q4&#45;&gt;q4 -->
<g id="edge16" class="edge">
<title>q4&#45;&gt;q4</title>
<path fill="none" stroke="black" d="M554.53,-199.75C565.51,-200.49 575,-197.91 575,-192 575,-188.03 570.72,-185.56 564.57,-184.59"/>
<polygon fill="black" stroke="black" points="564.65,-181.09 554.53,-184.25 564.41,-188.09 564.65,-181.09"/>
<text text-anchor="middle" x="594" y="-188.3" font-family="Times,serif" font-size="14.00">&quot;req&quot;</text>
</g>
<!-- start -->
<!-- start&#45;&gt;q1 -->
<g id="edge18" class="edge">
<title>start&#45;&gt;q1</title>
<path fill="none" stroke="black" d="M762,-347.8C762,-336.16 762,-320.55 762,-307.24"/>
<polygon fill="black" stroke="black" points="765.5,-307.18 762,-297.18 758.5,-307.18 765.5,-307.18"/>
<text text-anchor="middle" x="786" y="-318.8" font-family="Times,serif" font-size="14.00">START</text>
</g>
</g>
</svg>
