<?xml version="1.0" encoding="UTF-8" standalone="no"?>
<!DOCTYPE svg PUBLIC "-//W3C//DTD SVG 1.1//EN"
 "http://www.w3.org/Graphics/SVG/1.1/DTD/svg11.dtd">
<!-- Generated by graphviz version 2.43.0 (0)
 -->
<!-- Title: G Pages: 1 -->
<svg width="351pt" height="131pt"
 viewBox="0.00 0.00 351.00 131.00" xmlns="http://www.w3.org/2000/svg" xmlns:xlink="http://www.w3.org/1999/xlink">
<g id="graph0" class="graph" transform="scale(1 1) rotate(0) translate(4 127)">
<title>G</title>
<polygon fill="white" stroke="transparent" points="-4,4 -4,-127 347,-127 347,4 -4,4"/>
<!-- q0 -->
<g id="node1" class="node">
<title>q0</title>
<ellipse fill="red" stroke="black" cx="27" cy="-18" rx="27" ry="18"/>
<text text-anchor="middle" x="27" y="-14.3" font-family="Times,serif" font-size="14.00">q0</text>
</g>
<!-- q0&#45;&gt;q0 -->
<g id="edge1" class="edge">
<title>q0&#45;&gt;q0</title>
<path fill="none" stroke="black" d="M51.53,-25.75C62.51,-26.49 72,-23.91 72,-18 72,-14.03 67.72,-11.56 61.57,-10.59"/>
<polygon fill="black" stroke="black" points="61.65,-7.09 51.53,-10.25 61.41,-14.09 61.65,-7.09"/>
<text text-anchor="middle" x="76" y="-14.3" font-family="Times,serif" font-size="14.00">?</text>
</g>
<!-- q2 -->
<g id="node2" class="node">
<title>q2</title>
<ellipse fill="yellow" stroke="black" cx="181" cy="-18" rx="27" ry="18"/>
<text text-anchor="middle" x="181" y="-14.3" font-family="Times,serif" font-size="14.00">q2</text>
</g>
<!-- q2&#45;&gt;q2 -->
<g id="edge2" class="edge">
<title>q2&#45;&gt;q2</title>
<path fill="none" stroke="black" d="M207.79,-21.93C217.78,-22.06 226,-20.75 226,-18 226,-16.28 222.79,-15.13 217.94,-14.53"/>
<polygon fill="black" stroke="black" points="217.94,-11.03 207.79,-14.07 217.63,-18.02 217.94,-11.03"/>
<text text-anchor="middle" x="246" y="-14.3" font-family="Times,serif" font-size="14.00">&quot;pop&quot;</text>
</g>
<!-- q2&#45;&gt;q2 -->
<g id="edge6" class="edge">
<title>q2&#45;&gt;q2</title>
<path fill="none" stroke="black" d="M206.54,-24.37C232.94,-27.67 266,-25.55 266,-18 266,-11.4 240.69,-8.95 216.68,-10.65"/>
<polygon fill="black" stroke="black" points="216.16,-7.18 206.54,-11.63 216.83,-14.15 216.16,-7.18"/>
<text text-anchor="middle" x="295.5" y="-14.3" font-family="Times,serif" font-size="14.00">&quot;empty&quot;</text>
</g>
<!-- q1 -->
<g id="node3" class="node">
<title>q1</title>
<ellipse fill="yellow" stroke="black" cx="107" cy="-105" rx="27" ry="18"/>
<text text-anchor="middle" x="107" y="-101.3" font-family="Times,serif" font-size="14.00">q1</text>
</g>
<!-- q2&#45;&gt;q1 -->
<g id="edge3" class="edge">
<title>q2&#45;&gt;q1</title>
<path fill="none" stroke="black" d="M155.64,-24.6C139.73,-29.53 120.34,-38.43 110,-54 105.58,-60.65 103.95,-68.96 103.67,-76.88"/>
<polygon fill="black" stroke="black" points="100.17,-77.01 103.96,-86.9 107.17,-76.8 100.17,-77.01"/>
<text text-anchor="middle" x="134.5" y="-57.8" font-family="Times,serif" font-size="14.00">&quot;push&quot;</text>
</g>
<!-- q1&#45;&gt;q0 -->
<g id="edge4" class="edge">
<title>q1&#45;&gt;q0</title>
<path fill="none" stroke="black" d="M83.23,-96.42C69.38,-90.87 52.61,-82.01 42,-69 36.68,-62.48 33.25,-54.12 31.03,-46.1"/>
<polygon fill="black" stroke="black" points="34.44,-45.29 28.83,-36.3 27.61,-46.83 34.44,-45.29"/>
<text text-anchor="middle" x="71.5" y="-57.8" font-family="Times,serif" font-size="14.00">&quot;empty&quot;</text>
</g>
<!-- q1&#45;&gt;q2 -->
<g id="edge5" class="edge">
<title>q1&#45;&gt;q2</title>
<path fill="none" stroke="black" d="M128.08,-93.49C138.47,-87.47 150.55,-79.1 159,-69 164.71,-62.17 169.19,-53.63 172.57,-45.55"/>
<polygon fill="black" stroke="black" points="175.9,-46.66 176.17,-36.07 169.35,-44.18 175.9,-46.66"/>
<text text-anchor="middle" x="187" y="-57.8" font-family="Times,serif" font-size="14.00">&quot;pop&quot;</text>
</g>
<!-- q1&#45;&gt;q1 -->
<g id="edge7" class="edge">
<title>q1&#45;&gt;q1</title>
<path fill="none" stroke="black" d="M131.53,-112.75C142.51,-113.49 152,-110.91 152,-105 152,-101.03 147.72,-98.56 141.57,-97.59"/>
<polygon fill="black" stroke="black" points="141.65,-94.09 131.53,-97.25 141.41,-101.09 141.65,-94.09"/>
<text text-anchor="middle" x="176.5" y="-101.3" font-family="Times,serif" font-size="14.00">&quot;push&quot;</text>
</g>
<!-- start -->
<!-- start&#45;&gt;q2 -->
<g id="edge8" class="edge">
<title>start&#45;&gt;q2</title>
<path fill="none" stroke="black" d="M240.69,-86.71C237.03,-76.55 231.47,-63.81 224,-54 219.43,-48 213.63,-42.39 207.77,-37.5"/>
<polygon fill="black" stroke="black" points="209.9,-34.72 199.88,-31.3 205.58,-40.23 209.9,-34.72"/>
<text text-anchor="middle" x="256" y="-57.8" font-family="Times,serif" font-size="14.00">START</text>
</g>
</g>
</svg>
